<svg xmlns="http://www.w3.org/2000/svg">
  <symbol id="icon-yes" viewBox="-82 5 22 16">
    <path d="M-61 5.2a1 1 0 00-1.4 0l-13.4 13.4-4.9-5a1 1 0 10-1.4 1.5l5.6 5.6a1 1 0 001.5 0l14-14c.4-.5.4-1.1 0-1.5z"/>
  </symbol>
  <symbol id="icon-no" viewBox="0 0 27 27">
    <path d="M15.5 13.4L26.3 2.6A1.5 1.5 0 1024.2.4L13.4 11.3 2.6.4A1.5 1.5 0 10.4 2.6l10.9 10.8L.4 24.2a1.5 1.5 0 102.2 2.1l10.8-10.8 10.8 10.8c.3.3.7.5 1 .5s.8-.2 1.1-.5c.6-.6.6-1.5 0-2.1L15.5 13.4z"/>
  </symbol>
  <symbol id="icon-editor-crop" viewBox="0 0 48 48">
    <path fill="none" d="M0 0h48v48H0V0z"/>
    <path d="M34 30h4V14a4 4 0 00-4-4H18v4h16v16zm-20 4V2h-4v8H2v4h8v20a4 4 0 004 4h20v8h4v-8h8v-4H14z"/>
  </symbol>
  <symbol id="icon-editor-fill" viewBox="0 0 48 48">
    <path fill="none" d="M0 0h48v48H0V0z"/>
    <path d="M33.1 17.9L15.2 0l-2.8 2.8 4.8 4.8L6.9 17.9a3 3 0 000 4.2l11 11c.6.6 1.3.9 2.1.9s1.5-.3 2.1-.9l11-11a3 3 0 000-4.2zM10.4 20l9.6-9.6 9.6 9.6H10.4zM38 23s-4 4.3-4 7a4 4 0 108 0c0-2.7-4-7-4-7zM0 40h48v3H0z"/>
  </symbol>
  <symbol id="icon-editor-contrast" viewBox="-35 -8 32 32">
    <path d="M-19.46-3.96C-12.86-3.96-7.5 1.41-7.5 8s-5.37 11.96-11.96 11.96S-31.42 14.59-31.42 8s5.36-11.96 11.96-11.96m0-4a15.96 15.96 0 100 31.92 15.96 15.96 0 000-31.92z"/>
    <path d="M-19.46 16.33a8.52 8.52 0 100-17.04"/>
  </symbol>
</svg>
