<svg xmlns="http://www.w3.org/2000/svg">
  <symbol id="icon-yes" viewBox="-82.4 4.9 21.7 16.1">
    <path d="M-61 5.2a1 1 0 00-1.4 0l-13.4 13.4-4.9-5a1 1 0 10-1.4 1.5l5.6 5.6a1 1 0 001.5 0l14-14c.4-.5.4-1.1 0-1.5z"/>
  </symbol>
  <symbol class="id" id="icon-no" viewBox="0 0 27 27">
    <path d="M15.5 13.4L26.3 2.6A1.5 1.5 0 1024.2.4L13.4 11.3 2.6.4A1.5 1.5 0 10.4 2.6l10.9 10.8L.4 24.2a1.5 1.5 0 102.2 2.1l10.8-10.8 10.8 10.8c.3.3.7.5 1 .5s.8-.2 1.1-.5c.6-.6.6-1.5 0-2.1L15.5 13.4z"/>
  </symbol>
</svg>
